<?xml version="1.0" standalone="no"?>
<!DOCTYPE svg PUBLIC "-//W3C//DTD SVG 20010904//EN"
 "http://www.w3.org/TR/2001/REC-SVG-20010904/DTD/svg10.dtd">
<svg version="1.0" xmlns="http://www.w3.org/2000/svg"
 width="500.000000pt" height="500.000000pt" viewBox="0 0 500.000000 500.000000"
 preserveAspectRatio="xMidYMid meet">
<metadata>
</metadata>
<g transform="translate(0.000000,500.000000) scale(0.100000,-0.100000)"
fill="#5368d5" stroke="none">
<path d="M2625 4989 c-166 -21 -370 -102 -495 -198 -65 -49 -163 -146 -212
-210 l-26 -35 -59 17 c-99 29 -145 37 -225 37 -305 1 -584 -194 -689 -483 -16
-42 -32 -102 -35 -133 -6 -51 -10 -57 -43 -74 -226 -118 -395 -431 -377 -694
3 -49 10 -103 16 -120 5 -17 19 -60 30 -96 54 -172 204 -350 365 -432 172 -87
179 -88 852 -88 l588 0 3 58 c2 31 10 101 18 154 20 140 26 128 -67 128 -76 0
-82 2 -110 29 -36 37 -36 56 -1 112 63 98 270 337 312 359 55 30 106 5 197
-97 159 -179 243 -299 235 -338 -9 -48 -45 -65 -139 -65 -75 0 -84 -2 -80 -17
3 -10 13 -89 23 -176 l18 -158 640 3 c641 4 641 4 706 27 113 40 202 93 278
166 101 95 129 152 163 334 23 127 24 189 3 312 -38 226 -183 412 -397 509
-87 39 -143 52 -257 59 l-95 6 -3 110 c-8 277 -106 514 -289 699 -229 231
-527 335 -848 295z m473 -1353 c60 -34 106 -85 126 -143 15 -44 24 -216 13
-249 -16 -47 -95 -58 -132 -18 -23 24 -25 36 -25 113 0 106 -19 145 -77 159
-30 7 -810 10 -986 3 -28 -1 -47 -9 -68 -30 -28 -28 -29 -33 -29 -121 0 -88
-1 -93 -29 -121 -37 -37 -78 -38 -115 -4 -25 23 -26 28 -26 127 0 80 5 112 20
146 32 71 69 110 133 142 l61 31 541 -3 540 -3 53 -29z"/>
<path d="M2063 2119 c-44 -17 -99 -66 -370 -331 -536 -525 -540 -529 -570
-594 l-28 -59 -3 -567 -3 -568 156 0 c154 0 155 0 156 23 1 12 2 240 3 507 1
267 5 490 9 497 5 7 53 12 150 12 78 1 172 8 209 16 160 33 306 146 373 286
46 98 55 152 55 336 l0 154 553 -3 552 -3 66 -32 c119 -59 199 -163 216 -283
5 -30 8 -382 8 -782 l-1 -728 159 0 158 0 -3 788 c-3 711 -5 793 -21 845 -65
220 -225 389 -447 474 l-75 28 -625 2 c-605 2 -627 2 -677 -18z"/>
<path d="M1725 723 l0 -68 750 -1 c413 -1 762 0 778 3 26 4 27 7 27 69 l0 64
-778 0 -778 0 1 -67z"/>
<path d="M1897 322 l-178 -2 3 -65 3 -65 303 0 302 0 0 64 0 65 -127 3 c-71 2
-208 2 -306 0z"/>
<path d="M2510 255 l0 -65 385 0 385 0 0 65 0 65 -385 0 -385 0 0 -65z"/>
</g>
</svg>
